<svg width="49" height="37" viewBox="0 0 49 37" fill="none" xmlns="http://www.w3.org/2000/svg">
<path d="M7.638 1.23044L1.00532 9.74648C0.785429 10.0288 0.263184 10.5142 0.263184 10.9134C0.263184 11.3127 0.785429 11.5932 1.00532 11.8755L7.638 20.3915C7.8019 20.6027 8.01095 20.7467 8.23864 20.8051C8.46634 20.8636 8.70243 20.8339 8.91698 20.7199C9.13153 20.6059 9.31489 20.4126 9.4438 20.1647C9.57271 19.9167 9.64136 19.6252 9.64107 19.327L9.63941 12.3162L48.2632 12.3183V9.30364L9.63941 9.30577L9.64107 2.29494C9.64136 1.9968 9.5727 1.70526 9.4438 1.45729C9.31489 1.20931 9.13153 1.01606 8.91698 0.902042C8.70243 0.788021 8.46634 0.758363 8.23864 0.816827C8.01095 0.875291 7.8019 1.01924 7.638 1.23044Z" fill="#19B667"/>
<path d="M40.8884 36.3916L47.521 27.8756C47.7409 27.5933 48.2632 27.1079 48.2632 26.7086C48.2632 26.3094 47.7409 26.0289 47.521 25.7466L40.8884 17.2305C40.7245 17.0194 40.5154 16.8754 40.2877 16.8169C40.06 16.7585 39.8239 16.7881 39.6094 16.9022C39.3948 17.0162 39.2115 17.2094 39.0826 17.4574C38.9537 17.7054 38.885 17.9969 38.8853 18.2951L38.887 25.3059L0.263184 25.3038V28.3184L38.887 28.3163L38.8853 35.3271C38.885 35.6253 38.9537 35.9168 39.0826 36.1648C39.2115 36.4128 39.3948 36.606 39.6094 36.72C39.8239 36.834 40.06 36.8637 40.2877 36.8052C40.5154 36.7468 40.7245 36.6028 40.8884 36.3916Z" fill="#19B667"/>
</svg>
