<svg width="33" height="32" viewBox="0 0 33 32" fill="none" xmlns="http://www.w3.org/2000/svg">
<path d="M13.8333 18.6667L28.5 4M13.8333 18.6667L18.5 28C18.5585 28.1277 18.6524 28.2358 18.7706 28.3117C18.8887 28.3875 19.0262 28.4278 19.1666 28.4278C19.3071 28.4278 19.4445 28.3875 19.5627 28.3117C19.6809 28.2358 19.7748 28.1277 19.8333 28L28.5 4M13.8333 18.6667L4.49997 14C4.37232 13.9415 4.26414 13.8476 4.1883 13.7294C4.11246 13.6112 4.07214 13.4738 4.07214 13.3333C4.07214 13.1929 4.11246 13.0554 4.1883 12.9373C4.26414 12.8191 4.37232 12.7252 4.49997 12.6667L28.5 4" stroke="#19B667" stroke-width="4" stroke-linecap="round" stroke-linejoin="round"/>
</svg>
