<svg width="25" height="25" viewBox="0 0 25 25" fill="none" xmlns="http://www.w3.org/2000/svg">
<path d="M12.5 24.8332C9.7 24.8332 7.22222 23.9834 5.06667 22.2838C2.91111 20.5843 1.51111 18.4118 0.866667 15.7665C0.777778 15.4332 0.844444 15.1278 1.06667 14.8505C1.28889 14.5732 1.58889 14.4118 1.96667 14.3665C2.32222 14.3221 2.64444 14.3887 2.93333 14.5665C3.22222 14.7443 3.42222 15.011 3.53333 15.3665C4.06667 17.3665 5.16667 18.9998 6.83333 20.2665C8.5 21.5332 10.3889 22.1665 12.5 22.1665C15.1 22.1665 17.3058 21.2612 19.1173 19.4505C20.9289 17.6398 21.8342 15.4341 21.8333 12.8332C21.8324 10.2323 20.9271 8.02695 19.1173 6.21718C17.3076 4.4074 15.1018 3.50162 12.5 3.49984C10.9667 3.49984 9.53333 3.8554 8.2 4.56651C6.86667 5.27762 5.74444 6.2554 4.83333 7.49984H7.16667C7.54444 7.49984 7.86133 7.62784 8.11733 7.88384C8.37333 8.13984 8.50089 8.45629 8.5 8.83318C8.49911 9.21006 8.37111 9.52695 8.116 9.78384C7.86089 10.0407 7.54444 10.1683 7.16667 10.1665H1.83333C1.45556 10.1665 1.13911 10.0385 0.884 9.78251C0.628889 9.52651 0.500889 9.21006 0.5 8.83318V3.49984C0.5 3.12206 0.628 2.80562 0.884 2.55051C1.14 2.2954 1.45644 2.1674 1.83333 2.16651C2.21022 2.16562 2.52711 2.29362 2.784 2.55051C3.04089 2.8074 3.16844 3.12384 3.16667 3.49984V5.29984C4.3 3.87762 5.68356 2.77762 7.31733 1.99984C8.95111 1.22206 10.6787 0.833176 12.5 0.833176C14.1667 0.833176 15.728 1.15006 17.184 1.78384C18.64 2.41762 19.9067 3.27273 20.984 4.34918C22.0613 5.42562 22.9169 6.69229 23.5507 8.14918C24.1844 9.60607 24.5009 11.1674 24.5 12.8332C24.4991 14.499 24.1827 16.0603 23.5507 17.5172C22.9187 18.9741 22.0631 20.2407 20.984 21.3172C19.9049 22.3936 18.6382 23.2492 17.184 23.8838C15.7298 24.5185 14.1684 24.835 12.5 24.8332ZM13.8333 12.2998L17.1667 15.6332C17.4111 15.8776 17.5333 16.1887 17.5333 16.5665C17.5333 16.9443 17.4111 17.2554 17.1667 17.4998C16.9222 17.7443 16.6111 17.8665 16.2333 17.8665C15.8556 17.8665 15.5444 17.7443 15.3 17.4998L11.5667 13.7665C11.4333 13.6332 11.3333 13.4834 11.2667 13.3172C11.2 13.151 11.1667 12.9785 11.1667 12.7998V7.49984C11.1667 7.12206 11.2947 6.80562 11.5507 6.55051C11.8067 6.2954 12.1231 6.1674 12.5 6.16651C12.8769 6.16562 13.1938 6.29362 13.4507 6.55051C13.7076 6.8074 13.8351 7.12384 13.8333 7.49984V12.2998Z" fill="#19B667"/>
</svg>
