<svg width="136" height="137" viewBox="0 0 136 137" fill="none" xmlns="http://www.w3.org/2000/svg">
<g filter="url(#filter0_d_9_147)">
<path d="M104.267 0.631592H31.7333C16.4166 0.631592 4 13.0482 4 28.3649V100.898C4 116.215 16.4166 128.632 31.7333 128.632H104.267C119.583 128.632 132 116.215 132 100.898V28.3649C132 13.0482 119.583 0.631592 104.267 0.631592Z" fill="url(#paint0_linear_9_147)"/>
<path d="M68.2987 120.098C98.9321 120.098 123.765 95.265 123.765 64.6316C123.765 33.9982 98.9321 9.16492 68.2987 9.16492C37.6653 9.16492 12.832 33.9982 12.832 64.6316C12.832 95.265 37.6653 120.098 68.2987 120.098Z" fill="#38D165"/>
<path d="M68.2987 98.7649C87.15 98.7649 102.432 83.4829 102.432 64.6316C102.432 45.7803 87.15 30.4983 68.2987 30.4983C49.4473 30.4983 34.1653 45.7803 34.1653 64.6316C34.1653 83.4829 49.4473 98.7649 68.2987 98.7649Z" fill="#46D75E"/>
<path d="M68.2987 98.7649C87.15 98.7649 102.432 83.4829 102.432 64.6316C102.432 45.7803 87.15 30.4983 68.2987 30.4983C49.4473 30.4983 34.1653 45.7803 34.1653 64.6316C34.1653 83.4829 49.4473 98.7649 68.2987 98.7649Z" fill="#46D75E"/>
<path d="M68.2987 79.5649C76.5461 79.5649 83.232 72.879 83.232 64.6316C83.232 56.3841 76.5461 49.6983 68.2987 49.6983C60.0512 49.6983 53.3653 56.3841 53.3653 64.6316C53.3653 72.879 60.0512 79.5649 68.2987 79.5649Z" fill="#EFEFF4"/>
<path d="M68.2987 99.8316C61.3368 99.8316 54.5312 97.7672 48.7426 93.8993C42.954 90.0315 38.4423 84.534 35.7781 78.1021C33.1139 71.6701 32.4168 64.5925 33.775 57.7644C35.1332 50.9363 38.4857 44.6642 43.4085 39.7414C48.3313 34.8186 54.6034 31.4662 61.4315 30.108C68.2596 28.7498 75.3372 29.4468 81.7691 32.111C88.2011 34.7752 93.6986 39.2869 97.5664 45.0755C101.434 50.8641 103.499 57.6697 103.499 64.6316C103.499 73.9672 99.7901 82.9205 93.1888 89.5218C86.5875 96.123 77.6343 99.8316 68.2987 99.8316ZM68.2987 31.5649C61.7587 31.5649 55.3656 33.5043 49.9278 37.1377C44.49 40.7711 40.2518 45.9354 37.749 51.9775C35.2463 58.0197 34.5915 64.6683 35.8674 71.0826C37.1432 77.4969 40.2925 83.3888 44.917 88.0133C49.5415 92.6377 55.4334 95.787 61.8477 97.0629C68.262 98.3388 74.9106 97.684 80.9527 95.1812C86.9949 92.6785 92.1592 88.4402 95.7926 83.0025C99.426 77.5647 101.365 71.1716 101.365 64.6316C101.365 55.8618 97.8815 47.4511 91.6803 41.2499C85.4791 35.0487 77.0685 31.5649 68.2987 31.5649Z" fill="#58DC73"/>
<path d="M68.2987 64.6316L40.5653 16.6316C48.9973 11.7634 58.5622 9.20047 68.2987 9.20047C78.0351 9.20047 87.6 11.7634 96.032 16.6316L68.2987 64.6316Z" fill="url(#paint1_linear_9_147)"/>
<path d="M68.2987 79.5649C76.5461 79.5649 83.232 72.879 83.232 64.6316C83.232 56.3841 76.5461 49.6983 68.2987 49.6983C60.0512 49.6983 53.3653 56.3841 53.3653 64.6316C53.3653 72.879 60.0512 79.5649 68.2987 79.5649Z" fill="#EFEFF4"/>
<path d="M68.2987 74.2316C73.6006 74.2316 77.8987 69.9335 77.8987 64.6316C77.8987 59.3297 73.6006 55.0316 68.2987 55.0316C62.9967 55.0316 58.6987 59.3297 58.6987 64.6316C58.6987 69.9335 62.9967 74.2316 68.2987 74.2316Z" fill="#007AFF"/>
</g>
<defs>
<filter id="filter0_d_9_147" x="0" y="0.631592" width="136" height="136" filterUnits="userSpaceOnUse" color-interpolation-filters="sRGB">
<feFlood flood-opacity="0" result="BackgroundImageFix"/>
<feColorMatrix in="SourceAlpha" type="matrix" values="0 0 0 0 0 0 0 0 0 0 0 0 0 0 0 0 0 0 127 0" result="hardAlpha"/>
<feOffset dy="4"/>
<feGaussianBlur stdDeviation="2"/>
<feComposite in2="hardAlpha" operator="out"/>
<feColorMatrix type="matrix" values="0 0 0 0 0 0 0 0 0 0 0 0 0 0 0 0 0 0 0.25 0"/>
<feBlend mode="normal" in2="BackgroundImageFix" result="effect1_dropShadow_9_147"/>
<feBlend mode="normal" in="SourceGraphic" in2="effect1_dropShadow_9_147" result="shape"/>
</filter>
<linearGradient id="paint0_linear_9_147" x1="72.3307" y1="-1.52307" x2="63.6693" y2="130.786" gradientUnits="userSpaceOnUse">
<stop stop-color="#DDDDDB"/>
<stop offset="1" stop-color="#CCCCCA"/>
</linearGradient>
<linearGradient id="paint1_linear_9_147" x1="68" y1="128.632" x2="68" y2="-26.397" gradientUnits="userSpaceOnUse">
<stop offset="0.18" stop-color="#057EEE"/>
<stop offset="0.2" stop-color="#057EEF" stop-opacity="0.96"/>
<stop offset="0.46" stop-color="#037CF6" stop-opacity="0.56"/>
<stop offset="0.67" stop-color="#017BFB" stop-opacity="0.26"/>
<stop offset="0.83" stop-color="#007AFE" stop-opacity="0.07"/>
<stop offset="0.9" stop-color="#007AFF" stop-opacity="0"/>
</linearGradient>
</defs>
</svg>
