<svg width="32" height="28" viewBox="0 0 32 28" fill="none" xmlns="http://www.w3.org/2000/svg">
<path d="M4.87804 9.86568C5.32424 9.86621 5.75201 10.0437 6.06752 10.3592C6.38303 10.6747 6.56052 11.1025 6.56104 11.5487C6.56104 12.4767 5.80604 13.2302 4.87804 13.2302C3.95004 13.2302 3.19604 12.4762 3.19604 11.5482C3.19604 11.102 3.37322 10.6741 3.68863 10.3585C4.00404 10.0429 4.43186 9.86594 4.87804 9.86568ZM16.031 0.49968C16.3217 0.49968 16.6095 0.556927 16.878 0.668153C17.1465 0.779379 17.3905 0.942406 17.5961 1.14793C17.8016 1.35344 17.9646 1.59743 18.0758 1.86596C18.187 2.13448 18.2443 2.42228 18.2443 2.71293C18.2443 3.00358 18.187 3.29138 18.0758 3.5599C17.9646 3.82843 17.8016 4.07241 17.5961 4.27793C17.3905 4.48345 17.1465 4.64648 16.878 4.75771C16.6095 4.86893 16.3217 4.92618 16.031 4.92618C15.7406 4.92625 15.453 4.86909 15.1846 4.75798C14.9162 4.64687 14.6724 4.48399 14.467 4.27862C14.2615 4.07326 14.0986 3.82944 13.9874 3.5611C13.8763 3.29276 13.819 3.00514 13.819 2.71468C13.819 2.12774 14.052 1.5648 14.4667 1.1495C14.8815 0.734191 15.4441 0.500475 16.031 0.49968ZM3.84054 7.65318L4.18455 8.20018C4.5655 7.96117 5.02564 7.88286 5.46422 7.98238C5.90279 8.0819 6.28406 8.35115 6.52454 8.73118L7.07004 8.38618C6.73839 7.86142 6.21219 7.48957 5.6068 7.35216C5.00141 7.21476 4.36624 7.32301 3.84054 7.65318ZM5.39205 5.05218L5.60404 5.66168C6.029 5.51398 6.4952 5.54096 6.90028 5.7367C7.30536 5.93245 7.6162 6.28095 7.76454 6.70568L8.37354 6.49318C8.16839 5.90737 7.73936 5.4268 7.18049 5.15678C6.62161 4.88676 5.97848 4.84882 5.39205 5.05218ZM7.48904 2.86668L7.55904 3.50868C8.00631 3.46069 8.45436 3.59193 8.80505 3.87365C9.15574 4.15536 9.38048 4.56459 9.43005 5.01168L10.071 4.94118C10.003 4.32411 9.69302 3.75921 9.2091 3.37033C8.72518 2.98145 8.1063 2.80033 7.48904 2.86668ZM9.94755 1.84968C10.3941 1.90376 10.801 2.13261 11.0792 2.48611C11.3573 2.83961 11.484 3.28894 11.4315 3.73568L12.0725 3.81168C12.1452 3.19515 11.9704 2.57497 11.5865 2.08711C11.2026 1.59926 10.6409 1.28354 10.0245 1.20918L9.94755 1.84968ZM20.2295 1.02268C20.4924 1.38753 20.6 1.84166 20.5288 2.28565C20.4576 2.72965 20.2133 3.12735 19.8495 3.39168L20.2275 3.91518C20.73 3.55065 21.0673 3.0018 21.1658 2.38893C21.2642 1.77606 21.1156 1.14917 20.7525 0.645679L20.2295 1.02268ZM22.8525 2.27868C23.0264 2.69319 23.0289 3.15967 22.8597 3.57607C22.6905 3.99248 22.3632 4.32492 21.9495 4.50068L22.2005 5.09568C22.7718 4.8535 23.2238 4.3948 23.4575 3.82003C23.6913 3.24527 23.6877 2.6013 23.4475 2.02918L22.8525 2.27868ZM25.126 4.09118C25.2024 4.53452 25.1 4.99007 24.8411 5.35801C24.5823 5.72596 24.1881 5.97629 23.745 6.05418L23.855 6.68968C24.4667 6.58272 25.0109 6.23757 25.3684 5.72992C25.7259 5.22227 25.8674 4.59356 25.762 3.98168L25.126 4.09118ZM25.146 7.97168L25.111 8.61568C25.731 8.64882 26.3387 8.43479 26.8011 8.02051C27.2635 7.60623 27.5427 7.02551 27.5775 6.40568L26.9325 6.37018C26.9072 6.8193 26.705 7.24009 26.37 7.54036C26.0351 7.84064 25.5953 7.99541 25.146 7.97168ZM26.864 13.4422C25.928 13.4422 25.169 12.6892 25.169 11.7612C25.169 10.8332 25.9275 10.0802 26.864 10.0802C27.799 10.0802 28.559 10.8327 28.559 11.7612C28.559 12.6892 27.799 13.4422 26.864 13.4422ZM28.6525 16.3147L29.2865 16.3157L30.5835 20.8447C30.6835 21.1922 31.0715 21.3832 31.4505 21.2747C31.8305 21.1662 32.0705 20.8342 31.9425 20.3997L30.609 15.7537C30.076 13.8962 28.521 13.9542 28.521 13.9542H25.2075C25.2075 13.9542 23.654 13.8962 23.1195 15.7537L21.785 20.3997C21.658 20.8342 21.898 21.1662 22.278 21.2747C22.657 21.3832 23.045 21.1922 23.1435 20.8447L24.4415 16.3157L25.0745 16.3147L23.342 22.3567H30.387L28.6525 16.3147ZM4.84304 15.6717C5.45004 15.6717 5.80704 15.4497 5.82004 13.7717H3.89304C3.90704 15.4497 4.23204 15.6717 4.84304 15.6717Z" fill="#19B667"/>
<path d="M7.13397 16.4377H7.74897V21.1362C7.74897 21.5432 8.07797 21.8742 8.48297 21.8742C8.57934 21.8739 8.67471 21.8546 8.76357 21.8173C8.85243 21.78 8.93303 21.7254 9.00071 21.6568C9.06839 21.5882 9.12181 21.5069 9.1579 21.4175C9.19399 21.3282 9.21203 21.2325 9.21097 21.1362V15.9247C9.21097 14.7357 8.23597 13.7717 7.04697 13.7717H6.28597C6.28597 15.4092 5.80797 16.1027 5.10297 16.1027V17.9962C5.31097 18.0847 5.45797 18.2922 5.45797 18.5322C5.45797 18.8542 5.19997 19.1192 4.87797 19.1192C4.55497 19.1192 4.29797 18.8632 4.29797 18.5402C4.29797 18.2987 4.44297 18.0932 4.65097 18.0042V16.1092C3.91097 16.1092 3.45497 15.3527 3.45497 13.7717H2.73097C1.54097 13.7717 0.480469 14.7357 0.480469 15.9247V21.1362C0.480469 21.5432 0.799469 21.8737 1.20647 21.8737C1.61247 21.8737 1.94247 21.5432 1.94247 21.1362V16.4377H2.55147V22.3567H7.13397V16.4377ZM19.4095 8.57168H18.8495V26.0337C18.8495 26.7232 18.2905 27.2817 17.6005 27.2817C16.9105 27.2817 16.352 26.7232 16.352 26.0337V15.2187H15.712V26.0337C15.7028 26.3589 15.5671 26.6678 15.3338 26.8946C15.1004 27.1214 14.7879 27.2483 14.4625 27.2483C14.1371 27.2483 13.8245 27.1214 13.5912 26.8946C13.3579 26.6678 13.2222 26.3589 13.213 26.0337V8.57168H12.651L12.65 15.0112C12.65 15.2639 12.5496 15.5063 12.3708 15.6851C12.1921 15.8638 11.9497 15.9642 11.697 15.9642C11.4442 15.9642 11.2018 15.8638 11.0231 15.6851C10.8444 15.5063 10.744 15.2639 10.744 15.0112V7.89118C10.744 6.32318 11.866 5.43518 13.4025 5.43518H18.659C20.195 5.43518 21.3175 6.32368 21.3175 7.89118V15.0112C21.3175 15.2639 21.2171 15.5063 21.0383 15.6851C20.8596 15.8638 20.6172 15.9642 20.3645 15.9642C20.1117 15.9642 19.8693 15.8638 19.6906 15.6851C19.5119 15.5063 19.4115 15.2639 19.4115 15.0112L19.4095 8.57168Z" fill="#19B667"/>
</svg>
